<?xml version="1.0" encoding="UTF-8" standalone="no"?>
<!-- Created with Inkscape (http://www.inkscape.org/) -->

<svg
   xmlns:dc="http://purl.org/dc/elements/1.1/"
   xmlns:cc="http://creativecommons.org/ns#"
   xmlns:rdf="http://www.w3.org/1999/02/22-rdf-syntax-ns#"
   xmlns:svg="http://www.w3.org/2000/svg"
   xmlns="http://www.w3.org/2000/svg"
   xmlns:sodipodi="http://sodipodi.sourceforge.net/DTD/sodipodi-0.dtd"
   xmlns:inkscape="http://www.inkscape.org/namespaces/inkscape"
   version="1.1"
   id="svg3713"
   width="467.20001"
   height="281.92001"
   viewBox="0 0 467.20001 281.92001"
   sodipodi:docname="SoundOfBrownsburgLogo.svg"
   inkscape:version="0.92.3 (2405546, 2018-03-11)">
  <metadata
     id="metadata3719">
    <rdf:RDF>
      <cc:Work
         rdf:about="">
        <dc:format>image/svg+xml</dc:format>
        <dc:type
           rdf:resource="http://purl.org/dc/dcmitype/StillImage" />
        <dc:title></dc:title>
      </cc:Work>
    </rdf:RDF>
  </metadata>
  <defs
     id="defs3717" />
  <sodipodi:namedview
     pagecolor="#ffffff"
     bordercolor="#666666"
     borderopacity="1"
     objecttolerance="10"
     gridtolerance="10"
     guidetolerance="10"
     inkscape:pageopacity="0"
     inkscape:pageshadow="2"
     inkscape:window-width="1920"
     inkscape:window-height="1137"
     id="namedview3715"
     showgrid="false"
     inkscape:zoom="2.4279204"
     inkscape:cx="197.03512"
     inkscape:cy="138.08497"
     inkscape:window-x="-8"
     inkscape:window-y="-8"
     inkscape:window-maximized="1"
     inkscape:current-layer="svg3713" />
  <path
     style="fill:#000000;stroke-width:0.32000002"
     d="m 146.41453,281.00212 c -0.29425,-0.17169 -0.63216,-0.75457 -0.75092,-1.29528 -0.7289,-3.31868 1.89598,-6.52763 8.17673,-9.99614 1.71926,-0.94945 2.21942,-1.41934 2.81446,-2.64411 l 0.72364,-1.48946 -1.3575,0.99832 c -0.88318,0.64949 -1.73251,0.99831 -2.43079,0.99831 -0.92878,0 -1.13775,-0.15429 -1.55211,-1.14599 -0.42545,-1.01824 -0.42508,-1.33035 0.003,-2.8 0.97679,-3.35085 3.9286,-7.29775 6.8908,-9.2138 2.22434,-1.43877 4.56451,-1.08021 4.5516,0.69741 -0.0206,2.83876 -0.34322,4.08041 -1.58903,6.11581 -1.56366,2.55473 -2.71217,4.76629 -2.55621,4.92225 0.27685,0.27685 3.26139,-2.64936 4.7663,-4.67315 0.90898,-1.22239 1.76839,-2.22253 1.9098,-2.22253 2.03824,0 -3.02387,6.71371 -6.87645,9.12 -1.33939,0.83658 -1.74382,1.37142 -3.14559,4.16 -3.09872,6.16435 -5.47435,8.81068 -7.89109,8.79027 -0.63359,-0.005 -1.39273,-0.15021 -1.68698,-0.32191 z m 3.24282,-2.22184 c 0.99983,-0.5351 5.22983,-7.36652 4.56133,-7.36652 -1.23881,0 -5.95309,4.38737 -6.33063,5.89164 -0.39438,1.5713 0.38116,2.21778 1.7693,1.47488 z m 6.50856,-14.07359 c 1.34623,-1.18201 2.9047,-3.39812 2.66382,-3.78788 -0.0994,-0.16089 0.31628,-0.87325 0.92382,-1.58303 2.04539,-2.38957 2.17994,-4.16865 0.23938,-3.16515 -2.21909,1.14754 -5.84341,6.27181 -5.84341,8.26177 0,1.50274 0.53446,1.57544 2.01639,0.27429 z m 144.96699,14.19488 c -0.43428,-1.13171 0.59344,-4.25771 2.90886,-8.84781 1.30951,-2.596 2.31639,-4.72 2.23749,-4.72 -0.0789,0 -0.70238,0.36989 -1.38553,0.82197 -1.59551,1.05586 -4.02716,1.78607 -5.10297,1.5324 -1.11896,-0.26385 -2.26351,-1.31922 -2.80247,-2.58409 -1.73506,-4.07203 1.98379,-12.23388 8.84125,-19.40409 4.65358,-4.86581 7.73678,-6.90489 10.46215,-6.91916 3.72511,-0.0195 4.39749,4.44955 1.37104,9.11297 -1.40805,2.16964 -3.85298,4.68761 -5.2475,5.40425 -1.01813,0.52322 -2.10569,0.21872 -2.10569,-0.58956 0,-0.24354 1.27018,-1.71447 2.82262,-3.26875 2.02139,-2.02376 3.11904,-3.42922 3.86682,-4.95117 1.32259,-2.69189 1.25041,-3.5994 -0.29666,-3.72975 -3.36143,-0.28323 -11.78505,8.36829 -15.67469,16.09877 -2.04197,4.05832 -2.43558,6.44412 -1.26817,7.68677 1.63775,1.74331 4.05733,0.7896 9.18548,-3.62057 1.49359,-1.28448 2.15751,-1.66459 2.64,-1.51145 1.00053,0.31756 0.78388,1.39912 -0.73813,3.68488 -2.28596,3.43305 -4.09525,6.95115 -6.00504,11.67658 -1.63603,4.04804 -1.89185,4.48978 -2.65324,4.58143 -0.56904,0.0685 -0.91179,-0.0788 -1.05562,-0.45362 z M 25.609773,270.70748 c -0.75437,-0.97258 -0.69004,-1.69681 0.41514,-4.67387 2.20565,-5.94144 4.68841,-10.74187 9.78618,-18.92164 1.36483,-2.18999 2.41631,-4.047 2.33662,-4.12669 -0.0797,-0.0797 -1.02069,0.24815 -2.09111,0.72852 -2.17096,0.97427 -2.86708,0.90498 -2.86708,-0.28539 0,-0.65972 0.33289,-0.97315 1.84,-1.73245 2.91391,-1.46805 6.89817,-2.6022 9.141507,-2.6022 3.39474,0 5.45887,1.62237 5.41901,4.25924 -0.0462,3.05593 -2.30189,5.58742 -6.889747,7.73216 l -2.86599,1.3398 0.99416,0.41179 c 1.31831,0.54606 3.067077,2.52023 3.562657,4.02184 0.54401,1.64838 0.232,4.56982 -0.6895,6.45585 -1.120137,2.29259 -3.735157,4.76623 -6.270627,5.9316 -1.84682,0.84885 -2.53413,0.99333 -4.72147,0.99251 -1.63544,-6.4e-4 -2.99049,-0.18596 -3.75197,-0.51319 -1.18721,-0.51019 -1.19362,-0.50881 -1.60244,0.34417 -0.46239,0.96475 -1.26447,1.25792 -1.74534,0.63795 z m 11.06856,-3.62763 c 4.14527,-2.25614 6.924717,-8.57443 4.95413,-11.2618 -1.08918,-1.48535 -2.56704,-2.06782 -4.68294,-1.84568 -1.19405,0.12535 -1.84,0.0753 -1.84,-0.14272 0,-1.02181 -0.80219,0.0819 -2.54717,3.50456 -1.79794,3.52655 -4.17283,9.15003 -4.17283,9.88082 0,0.60102 1.80044,0.98483 4.17226,0.88943 1.9396,-0.078 2.7462,-0.27877 4.11655,-1.02461 z m 3.43068,-17.28071 c 5.996857,-2.22249 9.266577,-6.50447 6.214207,-8.13805 -0.66362,-0.35516 -2.80055,-0.37627 -4.333697,-0.0428 -0.74603,0.16226 -0.93892,0.36047 -0.86545,0.88929 0.0584,0.42063 -0.82749,2.08267 -2.32,4.35236 -1.328,2.01952 -2.41455,3.76505 -2.41455,3.87894 0,0.2792 1.35258,-0.0625 3.71949,-0.93973 z M 94.66116,270.2613 c -1.34841,-1.71423 -1.20672,-4.79281 0.37245,-8.09249 0.64779,-1.35357 0.67965,-1.55253 0.20823,-1.30024 -0.83815,0.44857 -3.23337,3.40975 -4.5824,5.66519 -1.21843,2.03707 -1.35486,2.14686 -2.24374,1.80576 -0.93329,-0.35813 -0.53282,-1.85418 1.6485,-6.15829 2.40999,-4.75529 3.82271,-6.67811 4.66814,-6.35369 0.75748,0.29067 0.67025,1.00359 -0.33393,2.72924 l -0.87112,1.49698 1.68694,-1.44 c 3.59859,-3.07183 5.53819,-3.88221 5.74428,-2.4 0.0512,0.36851 -0.53247,1.45447 -1.37599,2.56 -3.1797,4.16734 -4.28735,7.67021 -3.22749,10.20681 0.83048,1.98762 -0.40377,2.92083 -1.69387,1.28073 z m 83.90861,0.44618 c -0.67876,-0.87511 -0.69033,-1.58006 -0.0575,-3.50761 1.63454,-4.97906 5.04303,-11.73393 9.82254,-19.46611 1.57747,-2.552 2.81412,-4.69701 2.7481,-4.76669 -0.066,-0.0697 -0.99584,0.26636 -2.06626,0.74673 -2.17058,0.9741 -2.86708,0.90496 -2.86708,-0.28461 0,-0.63913 0.31267,-0.96216 1.52,-1.57036 4.99859,-2.51809 10.06222,-3.39935 12.47108,-2.17043 1.77276,0.90439 2.32892,1.78038 2.32892,3.6682 0,3.12743 -2.07325,5.49527 -6.76288,7.72382 l -2.86801,1.3629 0.97199,0.40261 c 1.29862,0.53791 3.04811,2.52071 3.5405,4.01266 1.3059,3.95693 -1.6482,9.72641 -6.16206,12.03475 -3.07685,1.57346 -6.75067,1.87109 -9.40522,0.76196 -1.02022,-0.42628 -1.07301,-0.41139 -1.46873,0.41423 -0.46239,0.96475 -1.26447,1.25792 -1.74534,0.63795 z m 11.08889,-3.63688 c 4.32843,-2.35127 6.93789,-8.88051 4.64039,-11.61093 -1.03772,-1.23326 -2.66626,-1.77305 -4.5135,-1.49604 -0.87433,0.13111 -1.5979,0.081 -1.84997,-0.12825 -0.32277,-0.26787 -0.84551,0.49126 -2.3721,3.44475 -1.78161,3.44688 -4.21396,9.18143 -4.21396,9.9349 0,0.60102 1.80044,0.98483 4.17226,0.88943 1.94474,-0.0782 2.74652,-0.27859 4.13688,-1.03386 z m 1.63225,-16.65284 c 4.22802,-1.25559 8.2583,-3.98263 8.94041,-6.04944 0.64802,-1.96352 -0.48107,-3.05689 -3.10076,-3.00266 -2.34887,0.0486 -3.15857,0.35998 -3.04354,1.17039 0.0613,0.43162 -0.74657,1.94496 -2.17389,4.07234 -2.16323,3.22424 -2.79863,4.32537 -2.49592,4.32537 0.0749,0 0.91805,-0.2322 1.8737,-0.516 z m 25.61807,19.85348 c -1.28856,-1.63814 -1.15601,-5.0016 0.31038,-7.87596 0.36015,-0.70595 0.55744,-1.37758 0.43844,-1.49253 -0.33598,-0.32451 -3.10698,2.92395 -4.44321,5.2088 -1.24233,2.12429 -1.73919,2.54252 -2.61925,2.20481 -0.82043,-0.31483 -0.36223,-1.9797 1.62254,-5.89558 2.82818,-5.57989 3.8291,-6.94834 4.80757,-6.57286 0.65751,0.25231 0.60944,1.3658 -0.10345,2.39644 -1.10727,1.60078 -1.13991,1.79547 -0.16815,1.00294 3.6548,-2.98072 4.41924,-3.53738 5.08829,-3.7053 1.91905,-0.48165 1.86918,0.79271 -0.13459,3.43964 -3.17694,4.19664 -4.22058,7.57918 -3.08003,9.9827 0.44834,0.9448 0.47958,1.26676 0.16027,1.65151 -0.57561,0.69357 -1.14421,0.58928 -1.87881,-0.34461 z m 48.35451,0.32631 c -1.5908,-1.11424 -1.68609,-4.62636 -0.21185,-7.80835 0.43534,-0.93965 0.70114,-1.79553 0.59066,-1.90195 -0.32322,-0.31134 -3.12075,2.98949 -4.42771,5.2243 -1.24233,2.12429 -1.73919,2.54252 -2.61925,2.20481 -0.82802,-0.31774 -0.34973,-2.04191 1.6732,-6.03161 2.2263,-4.39081 3.79271,-6.62991 4.53865,-6.48778 0.92787,0.17678 0.8028,1.43513 -0.30297,3.04839 l -1.04763,1.5284 1.68513,-1.44 c 2.75649,-2.35552 4.5991,-3.55567 5.3043,-3.45486 1.16952,0.1672 0.93573,1.29116 -0.72483,3.48472 -3.1411,4.1493 -4.25182,7.6607 -3.13278,9.90387 0.65926,1.32152 0.65292,1.49321 -0.0694,1.87979 -0.42252,0.22612 -0.77972,0.18353 -1.25551,-0.14973 z M 45.13481,268.98657 c -0.24748,-0.64491 1.47239,-5.23613 3.29293,-8.79053 1.57354,-3.07217 3.24891,-5.10228 4.2107,-5.10228 1.12277,0 1.02666,0.85066 -0.29497,2.61072 -2.18445,2.9091 -2.02339,2.96538 1.00843,0.35234 1.61228,-1.38957 3.42863,-2.79426 4.03634,-3.12153 1.03982,-0.55999 1.13696,-0.563 1.64879,-0.0512 0.51184,0.51183 0.44516,0.64004 -1.13182,2.17622 -2.65982,2.59102 -2.147,3.48603 1.05609,1.84316 1.12866,-0.57889 2.14089,-0.96375 2.24939,-0.85525 0.82522,0.82522 -2.69977,3.69208 -4.90301,3.9876 -1.56152,0.20944 -2.69133,-0.66324 -2.43182,-1.87835 0.27866,-1.30481 -3.8562,3.35369 -5.52651,6.22637 -0.84102,1.44643 -1.68004,2.73567 -1.86448,2.86498 -0.55578,0.38963 -1.14373,0.27541 -1.35006,-0.26229 z m 67.17471,0.14066 c -0.63836,-0.64071 -0.48349,-1.44 0.91348,-4.7146 2.93932,-6.88997 11.32826,-22.38775 12.51573,-23.12164 0.55637,-0.34386 1.1995,0.0463 1.40124,0.85016 0.13033,0.51928 -0.16859,1.28823 -1.01256,2.6047 -2.87362,4.48247 -6.7674,11.30791 -6.45094,11.30791 0.0538,0 0.66262,-0.288 1.35305,-0.64 1.65259,-0.84254 2.2615,-0.80759 3.25594,0.18685 0.74302,0.74301 0.80716,0.99445 0.63264,2.48 -0.45006,3.83103 -4.58528,9.59714 -7.5114,10.47382 -1.14294,0.34244 -1.51559,0.33095 -2.36864,-0.073 -0.96192,-0.45556 -1.04507,-0.44142 -1.67042,0.28395 -0.52746,0.61182 -0.73754,0.68367 -1.05812,0.3619 z m 5.71268,-3.23893 c 2.00928,-1.34058 5.04621,-6.78015 4.53889,-8.1298 -0.76902,-2.04588 -4.43877,1.23656 -6.93052,6.19908 l -0.83543,1.66382 0.70839,0.49618 c 0.93685,0.6562 1.23175,0.62935 2.51867,-0.22928 z m 16.60732,3.37947 c -1.01951,-0.37269 -1.9403,-1.54826 -2.12694,-2.71547 -0.10717,-0.6702 -0.24799,-1.21854 -0.31293,-1.21854 -0.065,0 -0.81207,0.72 -1.66027,1.6 -1.86303,1.93286 -3.10333,2.14402 -4.2291,0.72 -1.01268,-1.28096 -0.66957,-3.61259 1.00536,-6.83201 1.91001,-3.67129 4.98466,-6.22851 5.33038,-4.43334 0.0516,0.26801 -0.57397,1.34635 -1.39019,2.39632 -1.75817,2.26167 -2.87996,4.37681 -3.18573,6.0067 -0.18408,0.98127 -0.13055,1.18233 0.31485,1.18233 0.29516,0 0.79428,-0.13788 1.10916,-0.3064 0.81573,-0.43656 3.06519,-4.0048 3.8932,-6.17563 1.11692,-2.92831 2.7035,-4.16099 3.31259,-2.57371 0.10443,0.27213 -0.38844,1.75021 -1.09525,3.28462 -1.69445,3.67842 -1.73045,5.11556 -0.16513,6.59185 1.18326,1.11595 1.36467,1.68661 0.736,2.31527 -0.40684,0.40684 -0.75681,0.44284 -1.536,0.15801 z m 2.35195,-0.26383 c -0.47427,-1.23595 3.71809,-10.48616 5.76564,-12.72157 1.11471,-1.21698 2.23837,-1.54189 2.5474,-0.73659 0.0954,0.24861 -0.46136,1.29261 -1.23724,2.32 -0.77588,1.02739 -1.41453,1.97507 -1.41922,2.10596 -0.005,0.13089 1.32471,-0.87711 2.95421,-2.24 1.62951,-1.36289 3.37199,-2.69006 3.87217,-2.94927 0.83578,-0.43312 0.94626,-0.42091 1.36436,0.15087 0.41741,0.57084 0.32237,0.74926 -1.15217,2.16316 -1.53925,1.47595 -2.09293,2.79726 -1.17214,2.79726 0.23922,0 1.25334,-0.43672 2.25359,-0.97048 2.54584,-1.35854 3.32121,-0.78862 1.39145,1.02276 -1.2346,1.15887 -3.28064,2.17089 -4.40879,2.18069 -1.32061,0.0115 -2.31563,-0.87662 -2.0941,-1.86907 0.3179,-1.42426 -3.92854,3.32639 -5.56521,6.226 -0.78546,1.39156 -1.57746,2.63589 -1.76,2.7652 -0.5448,0.38591 -1.13959,0.27719 -1.33995,-0.24492 z m 69.89092,-0.26141 c -0.81336,-0.75379 -1.41476,-2.48704 -1.06136,-3.05885 0.10392,-0.16813 0.053,-0.38974 -0.11325,-0.49245 -0.1662,-0.10272 -0.39069,0.0921 -0.49888,0.43299 -0.10819,0.34087 -0.76697,1.13496 -1.46396,1.76465 -1.60315,1.44835 -3.20433,1.58189 -4.02109,0.33536 -0.88897,-1.35675 -0.45034,-4.52227 1.03106,-7.44084 2.46205,-4.85064 6.6541,-7.68944 8.91436,-6.0367 0.87617,0.64067 0.71242,3.62992 -0.30929,5.64617 -1.08507,2.14129 -1.88976,5.20213 -1.63475,6.21818 0.11657,0.46447 0.56006,1.00309 0.98552,1.19695 1.00015,0.4557 1.22637,1.08246 0.61232,1.69651 -0.69399,0.69399 -1.50287,0.60717 -2.44068,-0.26197 z m -2.86533,-3.91417 c 0.71686,-0.86967 3.65419,-6.02741 4.48191,-7.86991 0.0547,-0.12175 -0.19601,-0.37948 -0.55711,-0.57274 -1.37519,-0.73598 -3.67129,1.3276 -5.47343,4.91916 -0.88305,1.75986 -1.24412,3.947 -0.73557,4.45556 0.50278,0.50278 1.40491,0.13467 2.2842,-0.93207 z m 51.15248,4.30299 c -0.71189,-0.41382 -1.48636,-2.16303 -1.49975,-3.38731 -0.009,-0.82329 -0.0362,-0.84212 -0.36157,-0.25028 -0.19352,0.352 -0.86636,1.18 -1.49522,1.84 -0.92681,0.97272 -1.3721,1.2 -2.35104,1.2 -1.76789,0 -2.32002,-0.97753 -2.10004,-3.71807 0.48992,-6.10338 7.1188,-12.90053 10.30736,-10.569 0.87616,0.64067 0.71241,3.62992 -0.3093,5.64617 -1.08507,2.14129 -1.88976,5.20213 -1.63475,6.21818 0.11657,0.46447 0.56006,1.00309 0.98552,1.19695 1.00015,0.4557 1.22637,1.08246 0.61232,1.69651 -0.56799,0.56799 -1.31856,0.6122 -2.15353,0.12685 z m -3.18366,-4.273 c 0.49151,-0.61347 1.72695,-2.66353 2.74543,-4.55568 1.70549,-3.16849 1.80793,-3.47233 1.29678,-3.84609 -0.81762,-0.59786 -1.70586,-0.21409 -3.20735,1.38575 -2.31375,2.46531 -4.0608,6.94518 -3.08788,7.9181 0.50333,0.50333 1.42161,0.13566 2.25302,-0.90208 z m 69.97544,4.02434 c -0.94515,-0.57634 -1.72179,-2.03236 -1.72179,-3.22799 0,-0.36583 -0.55954,0.016 -1.71131,1.16775 -1.30711,1.30712 -1.93783,1.71131 -2.6704,1.71131 -1.98152,0 -2.66017,-2.09048 -1.69407,-5.21834 1.07682,-3.48635 4.34102,-7.77779 5.71477,-7.51323 0.94046,0.18112 0.70926,1.03153 -0.86792,3.19239 -2.77059,3.7959 -3.7885,6.71873 -2.40866,6.91618 0.98594,0.1411 2.42879,-1.73056 4.29871,-5.57623 1.67843,-3.45183 2.17264,-4.07823 3.07984,-3.90352 0.96537,0.18592 0.8423,1.12268 -0.51639,3.92969 -1.76969,3.65622 -1.77456,4.95747 -0.0246,6.57306 1.45175,1.34023 1.46333,1.37095 0.77715,2.05714 -0.6512,0.6512 -1.0406,0.63251 -2.25536,-0.10821 z m 11.68387,-0.28639 c -0.80841,-0.72232 -1.01136,-1.16186 -1.03993,-2.25238 l -0.0356,-1.35493 -0.63721,0.89238 c -1.35373,1.89577 -2.3337,2.65253 -3.42835,2.64749 -1.24391,-0.006 -1.63479,-0.22051 -2.13671,-1.17406 -1.28566,-2.44254 1.02941,-8.32652 4.54435,-11.5499 2.25856,-2.07122 4.39629,-2.6026 5.60554,-1.39336 0.74838,0.74839 0.70134,3.79699 -0.0769,4.98476 -0.28304,0.43199 -0.88435,1.88684 -1.33625,3.23298 -0.97936,2.91743 -0.85204,4.08771 0.52204,4.79826 0.99469,0.51438 1.17255,1.05901 0.54935,1.68222 -0.61763,0.61763 -1.4545,0.44781 -2.53034,-0.51346 z m -2.8751,-3.75791 c 0.54829,-0.62445 1.51728,-2.17245 2.15331,-3.44 0.63606,-1.26755 1.42637,-2.68686 1.75629,-3.15403 0.76224,-1.07935 0.75494,-1.44508 -0.0373,-1.86906 -1.3976,-0.74797 -3.65696,1.39514 -5.43651,5.15678 -0.90868,1.92078 -1.23399,3.7474 -0.75303,4.22835 0.49456,0.49456 1.38426,0.14055 2.31722,-0.92204 z m 6.2384,4.20991 c -0.23427,-0.61054 1.28189,-4.93297 2.81462,-8.02421 1.41648,-2.85681 3.20595,-5.44575 3.96554,-5.73723 1.79331,-0.68815 1.96537,0.33941 0.40483,2.41762 -2.13085,2.8377 -2.04986,3.00608 0.41318,0.85916 2.509,-2.187 5.15309,-4.10988 5.65133,-4.10988 0.16675,0 0.49079,0.22605 0.72007,0.50233 0.35766,0.43095 0.18134,0.72822 -1.2408,2.09187 -2.66522,2.55559 -2.12167,3.49463 1.07404,1.85555 1.12868,-0.57889 2.1409,-0.96375 2.24938,-0.85525 0.82525,0.82522 -2.69974,3.69208 -4.90301,3.9876 -1.56617,0.21007 -2.79821,-0.74256 -2.48118,-1.91847 0.35459,-1.31512 -4.11789,3.8098 -5.57447,6.38766 -0.77961,1.37979 -1.57161,2.6145 -1.76,2.74381 -0.54451,0.37376 -1.14796,0.283 -1.33353,-0.20056 z m -235.52097,-0.96254 c -1.00248,-1.00248 -1.088,-1.24337 -1.088,-3.06461 0,-1.77841 0.0982,-2.07487 0.97969,-2.95631 1.09113,-1.09113 1.93556,-0.8728 1.28996,0.33353 -0.19231,0.35932 -0.34965,1.24533 -0.34965,1.9689 0,1.48063 1.0839,2.88649 2.22546,2.88649 0.76865,0 1.93454,-1.06689 1.93454,-1.77028 0,-0.58965 -0.68935,-2.08847 -1.7614,-3.82972 -1.53032,-2.48558 -0.80664,-5.00653 1.96406,-6.84176 3.06993,-2.03344 7.18229,-1.98257 7.42233,0.0918 0.24455,2.11335 -1.03633,3.85833 -3.53166,4.81131 -1.77349,0.6773 -2.62011,0.56447 -2.75326,-0.36694 -0.0833,-0.583 0.1291,-0.7594 1.28,-1.06278 1.83227,-0.48298 2.81993,-1.14954 2.81993,-1.90313 0,-1.36964 -1.76973,-1.3869 -3.95142,-0.0385 -2.17235,1.34258 -2.31405,3.16111 -0.47836,6.13908 1.53108,2.48384 1.49459,4.11081 -0.12552,5.59553 -1.06415,0.97522 -1.39243,1.09541 -2.992,1.09541 -1.61664,0 -1.90573,-0.10904 -2.8847,-1.088 z m 129.45615,0.16137 c -0.58521,-0.5852 -1.00377,-1.41353 -1.1378,-2.25169 l -0.21202,-1.32592 -1.03726,1.54024 c -1.31816,1.95736 -2.97376,2.92137 -4.12014,2.39905 -2.12505,-0.96824 -2.33757,-4.5853 -0.48993,-8.33838 1.93138,-3.92319 5.28515,-6.37006 7.61691,-5.5572 0.84619,0.29498 0.89554,0.23639 2.6093,-3.0979 2.13141,-4.14687 4.57827,-8.25836 5.49642,-9.23569 0.37507,-0.39923 0.92943,-0.72588 1.23192,-0.72588 1.24408,0 0.92461,1.09634 -1.57481,5.40427 -5.19473,8.9535 -7.40674,14.16555 -7.40674,17.45215 0,1.37174 0.15156,1.93514 0.65637,2.43995 0.40678,0.40678 0.58467,0.88227 0.46782,1.25044 -0.32291,1.01741 -1.1117,1.0349 -2.10004,0.0466 z m -3.67332,-3.40567 c 1.0125,-1.10538 4.32917,-7.0716 4.32917,-7.78754 0,-0.55836 -2.00559,-0.4246 -2.88667,0.19253 -2.43417,1.70496 -4.68737,6.49151 -3.81931,8.1135 0.48664,0.9093 1.21443,0.75053 2.37681,-0.51849 z m 51.55744,3.34753 c -0.45574,-0.54161 -0.91855,-1.54712 -1.02845,-2.23445 l -0.19984,-1.24969 -0.94177,1.42182 c -1.17142,1.76852 -2.85174,2.86837 -3.95802,2.59071 -2.28886,-0.57447 -2.66825,-4.55692 -0.79634,-8.3593 1.94836,-3.95769 5.29961,-6.43838 7.63994,-5.65531 0.83845,0.28055 0.89811,0.20624 2.87537,-3.58126 3.01028,-5.76628 5.20543,-9.13852 6.09519,-9.36358 0.66251,-0.16757 1.30246,0.2488 1.32076,0.85932 0.003,0.0899 -1.00712,1.88993 -2.24403,4 -3.21584,5.486 -5.90821,10.85788 -6.8539,13.67502 -1.02811,3.0627 -1.09899,5.71967 -0.17717,6.64149 0.77162,0.77163 0.79585,1.07843 0.13714,1.73714 -0.69957,0.69957 -0.92327,0.64189 -1.86888,-0.48191 z m -3.50585,-3.40384 c 1.03177,-1.12643 4.27759,-7.00258 4.27759,-7.74404 0,-0.5481 -2.0157,-0.40471 -2.88668,0.20534 -2.43417,1.70496 -4.68737,6.49151 -3.8193,8.1135 0.49192,0.91919 1.21719,0.74751 2.42839,-0.5748 z m 84.58351,3.41355 c -0.58736,-0.62879 -0.94592,-1.35652 -0.94592,-1.9199 0,-1.41625 -0.44951,-1.36051 -1.54339,0.19139 -1.94679,2.76195 -4.1776,3.02078 -5.31824,0.61706 -1.04432,-2.20071 -0.0186,-5.9459 2.60899,-9.52523 1.54141,-2.09986 4.08525,-3.36522 5.74265,-2.85655 l 1.09098,0.33483 1.62774,-3.25327 c 2.01898,-4.03514 4.91706,-8.93454 5.70884,-9.65107 0.71427,-0.64641 1.71475,-0.52422 1.85945,0.2271 0.0574,0.29807 -0.89526,2.24042 -2.11699,4.31632 -6.52093,11.07983 -9.07466,18.30737 -7.10003,20.09438 0.8231,0.74491 0.81705,1.64272 -0.0141,2.08753 -0.55427,0.29665 -0.79834,0.19558 -1.6,-0.66259 z m -3.37191,-3.61232 c 1.09188,-1.33248 4.02599,-6.83284 4.02599,-7.54718 0,-0.18999 -0.50359,-0.34544 -1.11907,-0.34544 -2.12743,0 -5.0456,3.63385 -5.48346,6.82821 -0.38829,2.83305 0.74397,3.30081 2.57654,1.06441 z m -294.91602,3.89825 c -2.65116,-0.96021 -1.32337,-7.06513 2.47793,-11.39303 2.78105,-3.16632 5.86317,-4.20098 6.78086,-2.27633 0.84247,1.7669 -0.76718,6.40985 -3.59707,10.37558 -1.98114,2.77633 -3.94152,3.91681 -5.66172,3.29378 z m 2.76695,-2.70937 c 0.89638,-0.34398 2.47885,-2.93638 2.24404,-3.6762 -0.14792,-0.46606 0.068,-1.00958 0.72845,-1.83384 1.8904,-2.35919 2.25515,-3.89146 0.92635,-3.89146 -0.89418,0 -3.19702,2.33092 -4.43065,4.48468 -2.08063,3.63252 -1.84315,5.82817 0.53181,4.91682 z m 14.32371,2.48771 c -0.65393,-0.41493 -0.78767,-2.31682 -0.27911,-3.96921 0.2573,-0.836 0.43505,-1.52 0.39501,-1.52 -0.04,0 -0.82747,0.93014 -1.74984,2.06698 -2.74375,3.38173 -5.0028,4.32488 -5.79251,2.41835 -0.72571,-1.75202 0.29792,-4.52049 3.16569,-8.56178 1.74959,-2.46555 2.92523,-3.46978 3.70963,-3.16878 0.87858,0.33714 0.50319,1.34897 -1.25268,3.37654 -2.2129,2.55531 -3.69322,5.28832 -3.15559,5.82595 0.6018,0.6018 2.28739,-0.89567 5.28439,-4.6946 2.58942,-3.28229 3.73175,-4.14527 4.48715,-3.38986 0.25859,0.25859 -0.13566,1.30562 -1.46342,3.8865 -1.77439,3.44901 -2.16884,4.86571 -1.47429,5.29497 1.01605,0.62795 5.07001,-5.63906 5.59822,-8.65427 0.35259,-2.01276 0.99695,-3.04 1.90691,-3.04 0.70297,0 0.79093,0.13461 0.78419,1.2 -0.0246,3.8914 -6.27637,13.20914 -8.85325,13.1951 -0.49454,-0.003 -1.08426,-0.12235 -1.3105,-0.26589 z M 5.9250325,243.56517 c -3.8109,-0.43048 -4.97766002,-0.83265 -5.53337002,-1.90728 -0.99321,-1.92065 -0.3920699973,-4.69127 2.08266002,-9.59889 6.92392,-13.73077 19.0953205,-20.69897 40.3736905,-23.11418 4.097507,-0.46509 9.929977,-0.46087 70.021507,0.0507 45.80221,0.38994 163.62224,0.45309 163.46667,0.0876 -0.0587,-0.13783 -0.93595,-1.85677 -1.94952,-3.81987 -2.15789,-4.17945 -3.4688,-7.99543 -4.39504,-12.79371 -0.67467,-3.49503 -1.36023,-12.98289 -1.05389,-14.58541 l 0.16639,-0.87042 -86.3573,0.0112 c -93.37183,0.0121 -89.20742,-0.064 -93.06134,1.70037 -3.68535,1.68721 -5.64392,4.03143 -7.07494,8.468 -0.92085,2.8549 -1.32746,3.35159 -3.18103,3.88569 -2.03976,0.58775 -9.86966,0.78503 -14.43088,0.3636 -6.71437,-0.62038 -7.48862,-0.96591 -7.72717,-3.44855 -0.20102,-2.09205 0.46657,-4.34038 2.48731,-8.37688 3.97542,-7.94103 10.00179,-13.67494 18.25851,-17.37244 7.56664,-3.38847 16.28989,-5.29013 27.01223,-5.88862 2.112,-0.11789 19.752,-0.0577 39.2,0.13368 19.448,0.19141 56.89413,0.44067 83.21361,0.55391 l 47.85361,0.20588 1.70807,-1.5579 c 11.07682,-10.10296 24.75419,-17.62035 36.66472,-20.15178 3.93266,-0.83583 10.7271,-0.76813 14.4,0.14349 5.60845,1.39204 11.23865,4.96777 15.04752,9.55668 4.08301,4.91918 4.54246,7.88817 1.71731,11.0977 -2.24627,2.5519 -8.0488,6.23578 -10.87322,6.90312 -0.77638,0.18345 -5.40716,0.54657 -10.29062,0.80695 -11.96751,0.63809 -15.92233,1.45442 -20.26011,4.182 -1.85786,1.16822 -3.36238,2.93707 -4.38762,5.1585 -0.6897,1.49437 -0.71269,1.86793 -0.69595,11.30544 0.0159,8.98476 0.0721,9.95716 0.70748,12.24221 2.32388,8.35805 8.62785,14.09154 18.24054,16.58986 3.54513,0.92138 8.73527,0.90168 11.75467,-0.0446 4.20179,-1.31686 10.26109,-4.67066 14.73773,-8.1573 9.4862,-7.38828 16.26448,-18.51239 19.54124,-32.06991 1.47434,-6.1001 1.75831,-9.39678 1.95021,-22.64024 0.16954,-11.69931 -0.27203,-25.23308 -0.83453,-25.57746 -0.10707,-0.0656 -47.85865,-0.1557 -106.11465,-0.20033 -96.99996,-0.0743 -106.11959,-0.0371 -108.28991,0.4415 -6.01671,1.32694 -9.38808,4.30227 -10.9392,9.65412 -0.77687,2.68049 -1.56059,3.48788 -3.8736,3.99064 -4.70809,1.02335 -17.29836,0.49408 -20.00221,-0.84086 -2.11251,-1.04298 -2.10534,-3.85523 0.0221,-8.69402 6.18301,-14.0627 17.79648,-21.55373 38.12276,-24.59031 4.74436,-0.70876 8.06892,-0.71455 125.76001,-0.21889 46.816,0.19717 85.14157,0.33984 85.1679,0.31705 0.0262,-0.0228 0.15354,-7.2602 0.28263,-16.08312 l 0.23468,-16.04166 -12.92262,-0.22068 c -21.16426,-0.36141 -145.47051,-0.0416 -147.16702,0.37866 -2.58303,0.63982 -5.1078,1.71737 -6.48483,2.76766 -1.81205,1.3821 -3.5363,3.92428 -4.19371,6.18306 -0.89539,3.07645 -1.48822,3.99185 -2.8964,4.47244 -4.11472,1.40427 -19.34641,0.92659 -21.80418,-0.6838 -1.66438,-1.09055 -1.31454,-4.52852 0.94652,-9.30166 4.54909,-9.60323 10.91035,-15.53215 20.85759,-19.44001 6.52839,-2.56473 11.97175,-3.85387 20.13943,-4.76956 3.98331,-0.44658 11.82566,-0.44083 66.08001,0.0485 19.624,0.17698 48.35328,0.32335 63.84285,0.32527 l 28.16288,0.004 0.7656,-2.13476 c 1.14352,-3.18852 4.27564,-9.38709 6.2454,-12.3599 3.98583,-6.015526 9.15466,-11.503886 12.14573,-12.896606 3.36551,-1.56707 6.76951,-0.69419 8.75754,2.24567 0.91593,1.35446 1.04,1.79281 1.04,3.67453 0,3.76319 -1.07629,6.818196 -5.87325,16.671066 -1.49952,3.08 -3.01747,6.68 -3.37322,8 -2.34707,8.70879 -2.71942,19.73992 -1.0152,30.07723 0.81533,4.94568 0.90759,5.70407 1.46004,12.00277 0.26243,2.992 0.62297,5.95842 0.80118,6.59203 0.99395,3.53377 3.8384,2.99504 10.56045,-2.00014 10.6257,-7.89598 18.24726,-19.28693 20.96653,-31.33593 0.8199,-3.633 0.99955,-12.25429 0.33641,-16.14464 -1.74501,-10.23739 -7.16252,-20.105376 -15.27928,-27.831316 -3.30557,-3.1464 -6.01332,-4.91029 -9.22365,-6.00848 l -2.08,-0.71152 -69.91402,-0.0843 c -61.89031,-0.0746 -70.24526,-0.0274 -72.80002,0.4108 -6.56139,1.12553 -9.97672,4.14204 -11.79442,10.41713 -0.28417,0.98102 -0.78675,2.02809 -1.11685,2.32682 -1.50773,1.36449 -9.87135,1.91972 -17.40214,1.15528 -4.0397,-0.41006 -5.94487,-1.04609 -6.35359,-2.12111 -0.79195,-2.08299 -3.2e-4,-5.2913 2.50313,-10.14584 7.08213,-13.73271 20.71181,-20.8628446 43.24082,-22.6206876 3.39609,-0.264983 12.79285,-0.266717 35.84,-0.0066 17.1804,0.193893 44.62909,0.353702 60.99709,0.35513 29.37549,0.0026 48.2991,0.441298 54.75744,1.269522 5.64701,0.7241756 10.47219,2.4929666 14.33414,5.2545166 2.83293,2.025711 7.57453,7.076432 9.68964,10.321272 3.14828,4.8299 5.07302,9.20825 6.45248,14.67782 1.31161,5.20072 1.4863,7.531343 1.4863,19.830213 0,13.08531 -0.20061,15.07392 -2.10986,20.91337 -1.73254,5.29902 -4.26435,10.18852 -10.10128,19.5078 -1.46787,2.34363 -2.66848,4.35963 -2.66803,4.48 0,0.12036 2.84445,2.15109 6.32,4.51273 8.16503,5.54815 12.98259,9.17129 16.12298,12.12553 10.42662,9.80862 14.42643,23.80142 13.94787,48.7949 -0.12429,6.49158 -0.33286,9.7764 -0.82006,12.91568 -2.65152,17.08499 -9.32221,30.75403 -20.53162,42.07174 -7.5311,7.60387 -14.00157,11.00709 -23.36,12.28643 -6.0736,0.8303 -14.43616,0.40866 -21.93578,-1.106 -7.56784,-1.52844 -13.22813,-5.46569 -18.12281,-12.60606 -4.29581,-6.26669 -4.56372,-10.70114 -0.83133,-13.75956 3.38233,-2.77157 17.63549,-8.34101 19.89488,-7.77394 0.48006,0.12049 1.49257,0.79029 2.24995,1.48844 1.10614,1.01958 1.64637,1.94624 2.74547,4.70916 1.88407,4.73614 3.01047,6.63915 5.26525,8.89546 2.22259,2.2241 4.06323,3.18649 6.988,3.65373 4.32442,0.69082 8.21888,-0.87945 12.22637,-4.92976 9.36992,-9.47007 14.5929,-25.11394 13.34307,-39.96526 -1.18995,-14.13961 -6.73801,-26.42199 -16.21673,-35.90071 -6.46368,-6.46368 -13.41277,-10.53955 -21.53105,-12.62871 -3.00457,-0.77319 -13.57081,-2.61613 -13.78294,-2.40398 -0.0836,0.0836 0.0932,4.00553 0.3928,8.71548 1.00141,15.74314 1.14762,20.43345 0.82256,26.38993 -0.76861,14.08521 -3.29837,24.55392 -8.60602,35.61361 -5.11644,10.66133 -12.89411,20.69206 -21.2743,27.43709 -9.61978,7.74278 -19.47744,11.97533 -32.41107,13.91622 -3.57088,0.53586 -11.66197,0.56669 -148.73633,0.56669 -136.62251,0 -145.084397,0.032 -147.122857,0.55606 -5.5741,1.43306 -8.98375,4.61633 -10.28154,9.59887 -1.02808,3.94709 -1.56216,4.16586 -10.4356,4.27453 -3.608,0.0442 -7.6690205,-0.0449 -9.0244905,-0.19805 z"
     id="path3723"
     inkscape:connector-curvature="0" />
</svg>
